<svg xmlns="http://www.w3.org/2000/svg" xmlns:xlink="http://www.w3.org/1999/xlink" width="1152" zoomAndPan="magnify" viewBox="0 0 864 1535.999932" height="2048" preserveAspectRatio="xMidYMid meet" version="1.0"><defs><clipPath id="b763798a0e"><path d="M 432 0 L 863.996094 0 L 863.996094 1536 L 432 1536 Z M 432 0 " clip-rule="nonzero"/></clipPath><clipPath id="fb182780c9"><path d="M 0 0 L 431.996094 0 L 431.996094 1536 L 0 1536 Z M 0 0 " clip-rule="nonzero"/></clipPath></defs><rect x="-86.4" width="1036.8" fill="#ffffff" y="-153.599993" height="1843.199919" fill-opacity="1"/><rect x="-86.4" width="1036.8" fill="#ffffff" y="-153.599993" height="1843.199919" fill-opacity="1"/><g clip-path="url(#b763798a0e)"><path fill="#efb470" d="M 863.171875 -435.886719 C 863.171875 -290.691406 863.171875 -145.5 863.171875 -0.308594 L 527.902344 -0.308594 C 527.902344 -81.246094 527.902344 -162.183594 527.902344 -243.125 C 576.28125 -243.125 624.652344 -243.125 673.03125 -243.125 L 673.03125 -144.3125 L 718.042969 -144.3125 L 718.042969 -291.878906 L 482.878906 -291.878906 L 482.878906 352.1875 L 718.042969 352.1875 L 718.042969 204.621094 L 673.03125 204.621094 L 673.03125 303.433594 C 624.652344 303.433594 576.28125 303.433594 527.902344 303.433594 C 527.902344 222.492188 527.902344 141.558594 527.902344 60.617188 L 863.171875 60.617188 C 863.171875 205.808594 863.171875 351 863.171875 496.195312 L 577.960938 496.195312 L 577.960938 557.117188 L 863.171875 557.117188 C 863.171875 702.308594 863.171875 847.5 863.171875 992.695312 L 527.902344 992.695312 C 527.902344 911.753906 527.902344 830.816406 527.902344 749.878906 C 576.28125 749.878906 624.652344 749.878906 673.03125 749.878906 L 673.03125 848.6875 L 718.042969 848.6875 L 718.042969 701.121094 L 482.878906 701.121094 L 482.878906 1345.1875 L 718.042969 1345.1875 L 718.042969 1197.621094 L 673.03125 1197.621094 L 673.03125 1296.433594 C 624.652344 1296.433594 576.28125 1296.433594 527.902344 1296.433594 C 527.902344 1215.496094 527.902344 1134.558594 527.902344 1053.617188 L 863.171875 1053.617188 C 863.171875 1198.808594 863.171875 1344.003906 863.171875 1489.195312 L 577.960938 1489.195312 L 577.960938 1550.117188 L 863.171875 1550.117188 C 863.171875 1695.308594 863.171875 1840.503906 863.171875 1985.695312 L 527.902344 1985.695312 C 527.902344 1904.753906 527.902344 1823.816406 527.902344 1742.875 C 576.28125 1742.875 624.652344 1742.875 673.03125 1742.875 L 673.03125 1841.6875 L 718.042969 1841.6875 L 718.042969 1694.125 L 482.878906 1694.125 L 482.878906 2338.191406 L 718.042969 2338.191406 L 718.042969 2190.625 L 673.03125 2190.625 L 673.03125 2289.4375 C 624.652344 2289.4375 576.28125 2289.4375 527.902344 2289.4375 C 527.902344 2208.496094 527.902344 2127.558594 527.902344 2046.617188 L 863.171875 2046.617188 C 863.171875 2191.8125 863.171875 2337.003906 863.171875 2482.195312 L 577.960938 2482.195312 L 577.960938 2512.660156 L 527.902344 2512.660156 L 527.902344 2432.144531 L 813.113281 2432.144531 L 813.113281 2096.671875 L 577.960938 2096.671875 L 577.960938 2239.382812 L 622.972656 2239.382812 L 622.972656 2140.570312 C 671.351562 2140.570312 719.722656 2140.570312 768.101562 2140.570312 C 768.101562 2223.128906 768.101562 2305.683594 768.101562 2388.242188 L 482.878906 2388.242188 L 482.878906 2512.65625 L 432.824219 2512.65625 L 432.824219 -466.339844 L 482.878906 -466.339844 L 482.878906 -341.929688 L 768.101562 -341.929688 C 768.101562 -259.371094 768.101562 -176.8125 768.101562 -94.253906 C 719.722656 -94.253906 671.351562 -94.253906 622.972656 -94.253906 L 622.972656 -193.066406 L 577.960938 -193.066406 L 577.960938 -50.355469 L 813.113281 -50.355469 L 813.113281 -385.828125 L 527.902344 -385.828125 L 527.902344 -466.34375 L 577.960938 -466.34375 L 577.960938 -435.878906 L 863.171875 -435.878906 Z M 482.878906 1395.238281 L 768.101562 1395.238281 C 768.101562 1312.679688 768.101562 1230.125 768.101562 1147.566406 C 719.722656 1147.566406 671.351562 1147.566406 622.972656 1147.566406 L 622.972656 1246.378906 L 577.960938 1246.378906 L 577.960938 1103.667969 L 813.113281 1103.667969 L 813.113281 1439.136719 L 527.902344 1439.136719 L 527.902344 1600.167969 L 813.113281 1600.167969 L 813.113281 1935.636719 L 577.960938 1935.636719 L 577.960938 1792.925781 L 622.972656 1792.925781 L 622.972656 1891.738281 C 671.351562 1891.738281 719.722656 1891.738281 768.101562 1891.738281 C 768.101562 1809.183594 768.101562 1726.625 768.101562 1644.066406 L 482.878906 1644.066406 Z M 527.902344 446.136719 L 813.113281 446.136719 L 813.113281 110.667969 L 577.960938 110.667969 L 577.960938 253.378906 L 622.972656 253.378906 L 622.972656 154.566406 C 671.351562 154.566406 719.722656 154.566406 768.101562 154.566406 C 768.101562 237.121094 768.101562 319.679688 768.101562 402.238281 L 482.878906 402.238281 L 482.878906 651.066406 L 768.101562 651.066406 C 768.101562 733.621094 768.101562 816.179688 768.101562 898.738281 C 719.722656 898.738281 671.351562 898.738281 622.972656 898.738281 L 622.972656 799.925781 L 577.960938 799.925781 L 577.960938 942.636719 L 813.113281 942.636719 L 813.113281 607.164062 L 527.902344 607.164062 Z M 527.902344 446.136719 " fill-opacity="1" fill-rule="evenodd"/></g><g clip-path="url(#fb182780c9)"><path fill="#efb470" d="M 0.824219 -435.886719 C 0.824219 -290.691406 0.824219 -145.5 0.824219 -0.308594 L 336.089844 -0.308594 C 336.089844 -81.246094 336.089844 -162.183594 336.089844 -243.125 C 287.714844 -243.125 239.339844 -243.125 190.964844 -243.125 L 190.964844 -144.3125 L 145.953125 -144.3125 L 145.953125 -291.878906 L 381.113281 -291.878906 L 381.113281 352.1875 L 145.953125 352.1875 L 145.953125 204.621094 L 190.964844 204.621094 L 190.964844 303.433594 C 239.339844 303.433594 287.714844 303.433594 336.089844 303.433594 C 336.089844 222.492188 336.089844 141.558594 336.089844 60.617188 L 0.824219 60.617188 C 0.824219 205.808594 0.824219 351 0.824219 496.195312 L 286.03125 496.195312 L 286.03125 557.117188 L 0.824219 557.117188 C 0.824219 702.308594 0.824219 847.5 0.824219 992.695312 L 336.089844 992.695312 C 336.089844 911.753906 336.089844 830.816406 336.089844 749.878906 C 287.714844 749.878906 239.339844 749.878906 190.964844 749.878906 L 190.964844 848.6875 L 145.953125 848.6875 L 145.953125 701.121094 L 381.113281 701.121094 L 381.113281 1345.1875 L 145.953125 1345.1875 L 145.953125 1197.621094 L 190.964844 1197.621094 L 190.964844 1296.433594 C 239.339844 1296.433594 287.714844 1296.433594 336.089844 1296.433594 C 336.089844 1215.496094 336.089844 1134.558594 336.089844 1053.617188 L 0.824219 1053.617188 C 0.824219 1198.808594 0.824219 1344.003906 0.824219 1489.195312 L 286.03125 1489.195312 L 286.03125 1550.117188 L 0.824219 1550.117188 C 0.824219 1695.308594 0.824219 1840.503906 0.824219 1985.695312 L 336.089844 1985.695312 C 336.089844 1904.753906 336.089844 1823.816406 336.089844 1742.875 C 287.714844 1742.875 239.339844 1742.875 190.964844 1742.875 L 190.964844 1841.6875 L 145.953125 1841.6875 L 145.953125 1694.125 L 381.113281 1694.125 L 381.113281 2338.191406 L 145.953125 2338.191406 L 145.953125 2190.625 L 190.964844 2190.625 L 190.964844 2289.4375 C 239.339844 2289.4375 287.714844 2289.4375 336.089844 2289.4375 C 336.089844 2208.496094 336.089844 2127.558594 336.089844 2046.617188 L 0.824219 2046.617188 C 0.824219 2191.8125 0.824219 2337.003906 0.824219 2482.195312 L 286.03125 2482.195312 L 286.03125 2512.660156 L 336.089844 2512.660156 L 336.089844 2432.144531 L 50.882812 2432.144531 L 50.882812 2096.671875 L 286.03125 2096.671875 L 286.03125 2239.382812 L 241.019531 2239.382812 L 241.019531 2140.570312 C 192.644531 2140.570312 144.269531 2140.570312 95.894531 2140.570312 C 95.894531 2223.128906 95.894531 2305.683594 95.894531 2388.242188 L 381.113281 2388.242188 L 381.113281 2512.65625 L 431.171875 2512.65625 L 431.171875 -466.339844 L 381.113281 -466.339844 L 381.113281 -341.929688 L 95.894531 -341.929688 C 95.894531 -259.371094 95.894531 -176.8125 95.894531 -94.253906 C 144.269531 -94.253906 192.644531 -94.253906 241.019531 -94.253906 L 241.019531 -193.066406 L 286.03125 -193.066406 L 286.03125 -50.355469 L 50.882812 -50.355469 L 50.882812 -385.828125 L 336.089844 -385.828125 L 336.089844 -466.34375 L 286.03125 -466.34375 L 286.03125 -435.878906 L 0.824219 -435.878906 Z M 381.113281 1395.238281 L 95.894531 1395.238281 C 95.894531 1312.679688 95.894531 1230.125 95.894531 1147.566406 C 144.269531 1147.566406 192.644531 1147.566406 241.019531 1147.566406 L 241.019531 1246.378906 L 286.03125 1246.378906 L 286.03125 1103.667969 L 50.882812 1103.667969 L 50.882812 1439.136719 L 336.089844 1439.136719 L 336.089844 1600.167969 L 50.882812 1600.167969 L 50.882812 1935.636719 L 286.03125 1935.636719 L 286.03125 1792.925781 L 241.019531 1792.925781 L 241.019531 1891.738281 C 192.644531 1891.738281 144.269531 1891.738281 95.894531 1891.738281 C 95.894531 1809.183594 95.894531 1726.625 95.894531 1644.066406 L 381.113281 1644.066406 Z M 336.089844 446.136719 L 50.882812 446.136719 L 50.882812 110.667969 L 286.03125 110.667969 L 286.03125 253.378906 L 241.019531 253.378906 L 241.019531 154.566406 C 192.644531 154.566406 144.269531 154.566406 95.894531 154.566406 C 95.894531 237.121094 95.894531 319.679688 95.894531 402.238281 L 381.113281 402.238281 L 381.113281 651.066406 L 95.894531 651.066406 C 95.894531 733.621094 95.894531 816.179688 95.894531 898.738281 C 144.269531 898.738281 192.644531 898.738281 241.019531 898.738281 L 241.019531 799.925781 L 286.03125 799.925781 L 286.03125 942.636719 L 50.882812 942.636719 L 50.882812 607.164062 L 336.089844 607.164062 Z M 336.089844 446.136719 " fill-opacity="1" fill-rule="evenodd"/></g></svg>