<svg xmlns="http://www.w3.org/2000/svg" xmlns:xlink="http://www.w3.org/1999/xlink" width="300" zoomAndPan="magnify" viewBox="0 0 224.87999 37.5" height="50" preserveAspectRatio="xMidYMid meet" version="1.0"><defs><clipPath id="e0e007da8f"><path d="M 182 0.648438 L 223.339844 0.648438 L 223.339844 36.914062 L 182 36.914062 Z M 182 0.648438 " clip-rule="nonzero"/></clipPath><clipPath id="302e58c62a"><path d="M 1.421875 0.648438 L 43 0.648438 L 43 36.914062 L 1.421875 36.914062 Z M 1.421875 0.648438 " clip-rule="nonzero"/></clipPath><clipPath id="e68562a7d4"><path d="M 180 0.648438 L 221.832031 0.648438 L 221.832031 36.914062 L 180 36.914062 Z M 180 0.648438 " clip-rule="nonzero"/></clipPath><clipPath id="e8b945daa7"><path d="M 1.421875 0.648438 L 41 0.648438 L 41 36.914062 L 1.421875 36.914062 Z M 1.421875 0.648438 " clip-rule="nonzero"/></clipPath></defs><g clip-path="url(#e0e007da8f)"><path fill="#5e5550" d="M 214.96875 21.246094 C 213.414062 22.796875 211.007812 22.816406 209.589844 21.292969 C 208.179688 19.765625 208.292969 17.269531 209.851562 15.71875 C 211.40625 14.167969 213.8125 14.148438 215.226562 15.671875 C 216.636719 17.195312 216.523438 19.695312 214.96875 21.246094 Z M 222.023438 17.058594 C 221.414062 15.839844 221.820312 14.824219 221.25 13.640625 C 220.679688 12.460938 220.085938 12.808594 218.988281 12.929688 C 217.882812 13.050781 217.351562 12.847656 217.066406 12.402344 C 216.78125 11.953125 217.433594 10.894531 217.964844 10 C 218.496094 9.101562 218.066406 8.675781 217.1875 7.761719 C 216.3125 6.84375 215.742188 6.601562 214.882812 6.640625 C 214.027344 6.679688 213.351562 8.046875 212.722656 7.863281 C 212.089844 7.679688 211.292969 6.722656 211.351562 5.804688 C 211.414062 4.890625 211.988281 3.871094 211.375 2.285156 C 210.761719 0.699219 208.84375 0.65625 208.640625 0.820312 C 208.4375 0.984375 209.191406 3.570312 207.96875 5.480469 C 206.742188 7.394531 205.785156 7.375 205.664062 7.375 C 205.539062 7.375 205.457031 7.578125 205.480469 7.964844 C 205.5 8.351562 206.082031 8.703125 206.53125 9.558594 C 206.980469 10.414062 207.511719 11.839844 207.226562 13.429688 C 206.9375 15.019531 204.367188 18.320312 201.710938 16.078125 C 199.054688 13.835938 201.480469 11.097656 201.640625 10.9375 C 201.804688 10.773438 201.84375 10.527344 201.132812 10.101562 C 200.417969 9.671875 199.683594 9.714844 198.804688 9.855469 C 197.929688 10 197.542969 10.792969 197.152344 10.730469 C 196.765625 10.671875 196.765625 10.507812 196.238281 9.898438 C 195.703125 9.285156 195.277344 9.101562 194.214844 9.226562 C 193.152344 9.347656 192.238281 10.46875 192.277344 10.710938 C 192.320312 10.957031 192.871094 11.34375 193.5 12.21875 C 194.132812 13.09375 193.988281 14.734375 193.089844 16.121094 C 192.191406 17.503906 188.390625 19.175781 185.859375 15.101562 C 185.535156 14.582031 185.3125 14.070312 185.167969 13.566406 L 182.542969 16.183594 C 183.242188 16.925781 183.566406 17.566406 183.695312 17.765625 C 184.0625 18.347656 184.570312 18.449219 184.304688 18.894531 C 184.039062 19.339844 184.066406 19.222656 183.585938 19.636719 C 183.335938 19.855469 182.835938 20.277344 182.292969 21.074219 L 185.613281 24.382812 C 186.328125 22.96875 187.703125 21.917969 188.953125 21.679688 C 190.96875 21.296875 192.605469 22.554688 192.992188 24.367188 C 193.378906 26.179688 192.378906 27.296875 192.050781 27.296875 C 191.726562 27.296875 191.582031 27.601562 191.523438 27.828125 C 191.460938 28.050781 192.847656 29.109375 194.542969 28.640625 C 196.238281 28.171875 196.195312 26.503906 196.253906 26.242188 C 196.316406 25.976562 196.664062 25.792969 197.03125 26.199219 C 197.398438 26.605469 197.867188 27.5625 199.355469 28.398438 C 200.847656 29.230469 202.050781 28.640625 202.253906 28.4375 C 202.457031 28.234375 202.253906 28.113281 201.113281 26.441406 C 199.96875 24.773438 201.417969 22.800781 202.742188 22.453125 C 204.070312 22.109375 205.761719 22.007812 207.234375 24.449219 C 208.703125 26.890625 206.558594 28.5 206.640625 28.824219 C 206.726562 29.148438 207.558594 29.699219 208.417969 31.003906 C 209.273438 32.304688 208.945312 35.03125 208.742188 35.558594 C 208.539062 36.089844 208.273438 36.476562 208.621094 36.699219 C 208.96875 36.925781 211.351562 36.457031 213.210938 33.953125 C 215.066406 31.449219 212.515625 29.636719 212.984375 29.128906 C 213.457031 28.621094 214.007812 29.292969 214.355469 29.636719 C 214.699219 29.984375 216.414062 31.570312 218.148438 29.148438 C 219.882812 26.726562 217.433594 24.773438 216.984375 24.40625 C 216.539062 24.039062 216.863281 23.917969 217.085938 23.820312 C 217.3125 23.714844 218.269531 23.898438 219.535156 23.125 C 220.800781 22.351562 221.597656 20.621094 222.191406 19.871094 C 222.78125 19.117188 223.289062 19.21875 223.289062 18.851562 C 223.289062 18.484375 222.636719 18.28125 222.023438 17.058594 " fill-opacity="1" fill-rule="evenodd"/></g><g clip-path="url(#302e58c62a)"><path fill="#5e5550" d="M 9.65625 15.671875 C 11.066406 14.148438 13.476562 14.167969 15.03125 15.71875 C 16.585938 17.269531 16.703125 19.765625 15.289062 21.292969 C 13.875 22.816406 11.464844 22.796875 9.910156 21.246094 C 8.355469 19.695312 8.238281 17.195312 9.65625 15.671875 Z M 1.589844 18.851562 C 1.589844 19.21875 2.097656 19.117188 2.691406 19.871094 C 3.28125 20.621094 4.078125 22.351562 5.34375 23.125 C 6.605469 23.898438 7.566406 23.714844 7.792969 23.820312 C 8.015625 23.917969 8.34375 24.039062 7.894531 24.40625 C 7.445312 24.773438 4.996094 26.726562 6.730469 29.148438 C 8.464844 31.570312 10.179688 29.984375 10.527344 29.636719 C 10.875 29.292969 11.421875 28.621094 11.894531 29.128906 C 12.363281 29.636719 9.8125 31.449219 11.671875 33.953125 C 13.523438 36.457031 15.914062 36.925781 16.261719 36.699219 C 16.605469 36.476562 16.339844 36.089844 16.136719 35.558594 C 15.933594 35.03125 15.605469 32.304688 16.464844 31.003906 C 17.320312 29.699219 18.15625 29.148438 18.238281 28.824219 C 18.320312 28.5 16.175781 26.890625 17.648438 24.449219 C 19.117188 22.007812 20.808594 22.109375 22.136719 22.453125 C 23.460938 22.800781 24.910156 24.773438 23.765625 26.441406 C 22.625 28.113281 22.421875 28.234375 22.625 28.4375 C 22.828125 28.640625 24.035156 29.230469 25.523438 28.398438 C 27.011719 27.5625 27.480469 26.605469 27.847656 26.199219 C 28.214844 25.792969 28.5625 25.976562 28.625 26.242188 C 28.683594 26.503906 28.644531 28.171875 30.339844 28.640625 C 32.03125 29.109375 33.417969 28.050781 33.359375 27.828125 C 33.296875 27.601562 33.152344 27.296875 32.828125 27.296875 C 32.5 27.296875 31.5 26.179688 31.890625 24.367188 C 32.277344 22.554688 33.910156 21.296875 35.929688 21.679688 C 37.175781 21.917969 38.550781 22.96875 39.265625 24.382812 L 42.585938 21.074219 C 42.042969 20.277344 41.542969 19.855469 41.292969 19.636719 C 40.816406 19.222656 40.839844 19.339844 40.574219 18.894531 C 40.308594 18.449219 40.820312 18.347656 41.1875 17.765625 C 41.3125 17.566406 41.636719 16.925781 42.335938 16.183594 L 39.714844 13.566406 C 39.566406 14.070312 39.34375 14.582031 39.023438 15.101562 C 36.488281 19.175781 32.6875 17.503906 31.789062 16.121094 C 30.890625 14.734375 30.746094 13.09375 31.378906 12.21875 C 32.011719 11.34375 32.5625 10.957031 32.601562 10.710938 C 32.644531 10.46875 31.726562 9.347656 30.664062 9.226562 C 29.605469 9.101562 29.175781 9.285156 28.644531 9.898438 C 28.113281 10.507812 28.113281 10.671875 27.726562 10.730469 C 27.335938 10.792969 26.949219 10 26.074219 9.855469 C 25.195312 9.714844 24.460938 9.671875 23.746094 10.101562 C 23.035156 10.527344 23.074219 10.773438 23.238281 10.9375 C 23.398438 11.097656 25.824219 13.835938 23.167969 16.078125 C 20.515625 18.320312 17.941406 15.019531 17.65625 13.429688 C 17.371094 11.839844 17.898438 10.414062 18.347656 9.558594 C 18.796875 8.703125 19.378906 8.351562 19.398438 7.964844 C 19.421875 7.578125 19.339844 7.375 19.21875 7.375 C 19.09375 7.375 18.136719 7.394531 16.910156 5.480469 C 15.6875 3.570312 16.441406 0.984375 16.238281 0.820312 C 16.035156 0.65625 14.117188 0.699219 13.503906 2.285156 C 12.894531 3.871094 13.464844 4.890625 13.523438 5.804688 C 13.585938 6.722656 12.789062 7.679688 12.15625 7.863281 C 11.527344 8.046875 10.851562 6.679688 9.996094 6.640625 C 9.136719 6.601562 8.566406 6.84375 7.691406 7.761719 C 6.8125 8.675781 6.382812 9.101562 6.914062 10 C 7.445312 10.894531 8.097656 11.953125 7.8125 12.402344 C 7.527344 12.847656 6.996094 13.050781 5.894531 12.929688 C 4.792969 12.808594 4.199219 12.460938 3.628906 13.640625 C 3.058594 14.824219 3.464844 15.839844 2.855469 17.058594 C 2.242188 18.28125 1.589844 18.484375 1.589844 18.851562 " fill-opacity="1" fill-rule="evenodd"/></g><path fill="#5e5550" d="M 39.609375 19.953125 L 185.90625 19.953125 L 185.90625 17.554688 L 39.609375 17.554688 L 39.609375 19.953125 " fill-opacity="1" fill-rule="evenodd"/><g clip-path="url(#e68562a7d4)"><path fill="#5e5550" d="M 213.339844 21.246094 C 211.785156 22.796875 209.375 22.816406 207.960938 21.292969 C 206.550781 19.765625 206.664062 17.269531 208.21875 15.71875 C 209.773438 14.167969 212.183594 14.148438 213.597656 15.671875 C 215.007812 17.195312 214.894531 19.695312 213.339844 21.246094 Z M 220.394531 17.058594 C 219.785156 15.839844 220.191406 14.824219 219.621094 13.640625 C 219.046875 12.460938 218.457031 12.808594 217.355469 12.929688 C 216.253906 13.050781 215.722656 12.847656 215.4375 12.402344 C 215.152344 11.953125 215.804688 10.894531 216.335938 10 C 216.867188 9.101562 216.4375 8.675781 215.558594 7.761719 C 214.683594 6.84375 214.113281 6.601562 213.253906 6.640625 C 212.398438 6.679688 211.722656 8.046875 211.09375 7.863281 C 210.460938 7.679688 209.664062 6.722656 209.722656 5.804688 C 209.785156 4.890625 210.355469 3.871094 209.746094 2.285156 C 209.132812 0.699219 207.214844 0.65625 207.011719 0.820312 C 206.808594 0.984375 207.5625 3.570312 206.339844 5.480469 C 205.113281 7.394531 204.15625 7.375 204.035156 7.375 C 203.910156 7.375 203.828125 7.578125 203.847656 7.964844 C 203.871094 8.351562 204.453125 8.703125 204.902344 9.558594 C 205.351562 10.414062 205.882812 11.839844 205.59375 13.429688 C 205.308594 15.019531 202.734375 18.320312 200.082031 16.078125 C 197.421875 13.835938 199.851562 11.097656 200.011719 10.9375 C 200.175781 10.773438 200.214844 10.527344 199.503906 10.101562 C 198.789062 9.671875 198.054688 9.714844 197.175781 9.855469 C 196.300781 10 195.914062 10.792969 195.523438 10.730469 C 195.136719 10.671875 195.136719 10.507812 194.609375 9.898438 C 194.074219 9.285156 193.644531 9.101562 192.585938 9.226562 C 191.523438 9.347656 190.609375 10.46875 190.648438 10.710938 C 190.6875 10.957031 191.238281 11.34375 191.871094 12.21875 C 192.503906 13.09375 192.359375 14.734375 191.460938 16.121094 C 190.5625 17.503906 186.761719 19.175781 184.226562 15.101562 C 183.90625 14.582031 183.683594 14.070312 183.535156 13.566406 L 180.914062 16.183594 C 181.609375 16.925781 181.9375 17.566406 182.0625 17.765625 C 182.429688 18.347656 182.941406 18.449219 182.675781 18.894531 C 182.410156 19.339844 182.4375 19.222656 181.957031 19.636719 C 181.707031 19.855469 181.203125 20.277344 180.664062 21.074219 L 183.984375 24.382812 C 184.699219 22.96875 186.074219 21.917969 187.320312 21.679688 C 189.339844 21.296875 190.972656 22.554688 191.359375 24.367188 C 191.75 26.179688 190.75 27.296875 190.421875 27.296875 C 190.097656 27.296875 189.953125 27.601562 189.894531 27.828125 C 189.832031 28.050781 191.21875 29.109375 192.914062 28.640625 C 194.609375 28.171875 194.566406 26.503906 194.625 26.242188 C 194.6875 25.976562 195.035156 25.792969 195.402344 26.199219 C 195.769531 26.605469 196.238281 27.5625 197.726562 28.398438 C 199.21875 29.230469 200.421875 28.640625 200.625 28.4375 C 200.828125 28.234375 200.625 28.113281 199.484375 26.441406 C 198.339844 24.773438 199.789062 22.800781 201.113281 22.453125 C 202.441406 22.109375 204.132812 22.007812 205.605469 24.449219 C 207.074219 26.890625 204.929688 28.5 205.011719 28.824219 C 205.09375 29.148438 205.929688 29.699219 206.785156 31.003906 C 207.644531 32.304688 207.316406 35.03125 207.113281 35.558594 C 206.910156 36.089844 206.644531 36.476562 206.992188 36.699219 C 207.339844 36.925781 209.722656 36.457031 211.582031 33.953125 C 213.4375 31.449219 210.886719 29.636719 211.355469 29.128906 C 211.824219 28.621094 212.378906 29.292969 212.726562 29.636719 C 213.070312 29.984375 214.785156 31.570312 216.519531 29.148438 C 218.253906 26.726562 215.804688 24.773438 215.355469 24.40625 C 214.90625 24.039062 215.234375 23.917969 215.457031 23.820312 C 215.683594 23.714844 216.640625 23.898438 217.90625 23.125 C 219.171875 22.351562 219.96875 20.621094 220.558594 19.871094 C 221.152344 19.117188 221.660156 19.21875 221.660156 18.851562 C 221.660156 18.484375 221.007812 18.28125 220.394531 17.058594 " fill-opacity="1" fill-rule="evenodd"/></g><g clip-path="url(#e8b945daa7)"><path fill="#5e5550" d="M 8.023438 15.671875 C 9.4375 14.148438 11.847656 14.167969 13.402344 15.71875 C 14.957031 17.269531 15.070312 19.765625 13.660156 21.292969 C 12.246094 22.816406 9.835938 22.796875 8.28125 21.246094 C 6.726562 19.695312 6.609375 17.195312 8.023438 15.671875 Z M -0.0390625 18.851562 C -0.0390625 19.21875 0.46875 19.117188 1.0625 19.871094 C 1.652344 20.621094 2.449219 22.351562 3.714844 23.125 C 4.976562 23.898438 5.9375 23.714844 6.164062 23.820312 C 6.386719 23.917969 6.710938 24.039062 6.265625 24.40625 C 5.816406 24.773438 3.367188 26.726562 5.101562 29.148438 C 6.835938 31.570312 8.550781 29.984375 8.898438 29.636719 C 9.242188 29.292969 9.792969 28.621094 10.265625 29.128906 C 10.730469 29.636719 8.183594 31.449219 10.039062 33.953125 C 11.894531 36.457031 14.28125 36.925781 14.628906 36.699219 C 14.976562 36.476562 14.710938 36.089844 14.507812 35.558594 C 14.304688 35.03125 13.976562 32.304688 14.832031 31.003906 C 15.691406 29.699219 16.527344 29.148438 16.609375 28.824219 C 16.691406 28.5 14.546875 26.890625 16.015625 24.449219 C 17.484375 22.007812 19.179688 22.109375 20.507812 22.453125 C 21.832031 22.800781 23.28125 24.773438 22.136719 26.441406 C 20.996094 28.113281 20.792969 28.234375 20.996094 28.4375 C 21.199219 28.640625 22.402344 29.230469 23.894531 28.398438 C 25.382812 27.5625 25.851562 26.605469 26.21875 26.199219 C 26.585938 25.792969 26.933594 25.976562 26.992188 26.242188 C 27.054688 26.503906 27.015625 28.171875 28.707031 28.640625 C 30.402344 29.109375 31.789062 28.050781 31.730469 27.828125 C 31.667969 27.601562 31.523438 27.296875 31.195312 27.296875 C 30.871094 27.296875 29.871094 26.179688 30.257812 24.367188 C 30.644531 22.554688 32.28125 21.296875 34.296875 21.679688 C 35.546875 21.917969 36.921875 22.96875 37.636719 24.382812 L 40.957031 21.074219 C 40.414062 20.277344 39.914062 19.855469 39.664062 19.636719 C 39.183594 19.222656 39.210938 19.339844 38.945312 18.894531 C 38.679688 18.449219 39.191406 18.347656 39.554688 17.765625 C 39.683594 17.566406 40.007812 16.925781 40.707031 16.183594 L 38.085938 13.566406 C 37.9375 14.070312 37.714844 14.582031 37.390625 15.101562 C 34.859375 19.175781 31.058594 17.503906 30.160156 16.121094 C 29.261719 14.734375 29.117188 13.09375 29.75 12.21875 C 30.382812 11.34375 30.933594 10.957031 30.972656 10.710938 C 31.011719 10.46875 30.097656 9.347656 29.035156 9.226562 C 27.972656 9.101562 27.546875 9.285156 27.015625 9.898438 C 26.484375 10.507812 26.484375 10.671875 26.097656 10.730469 C 25.707031 10.792969 25.320312 10 24.445312 9.855469 C 23.566406 9.714844 22.832031 9.671875 22.117188 10.101562 C 21.402344 10.527344 21.445312 10.773438 21.609375 10.9375 C 21.769531 11.097656 24.195312 13.835938 21.539062 16.078125 C 18.882812 18.320312 16.308594 15.019531 16.027344 13.429688 C 15.738281 11.839844 16.269531 10.414062 16.71875 9.558594 C 17.167969 8.703125 17.75 8.351562 17.769531 7.964844 C 17.792969 7.578125 17.710938 7.375 17.589844 7.375 C 17.464844 7.375 16.507812 7.394531 15.28125 5.480469 C 14.058594 3.570312 14.8125 0.984375 14.609375 0.820312 C 14.40625 0.65625 12.488281 0.699219 11.875 2.285156 C 11.261719 3.871094 11.835938 4.890625 11.894531 5.804688 C 11.957031 6.722656 11.160156 7.679688 10.527344 7.863281 C 9.898438 8.046875 9.222656 6.679688 8.363281 6.640625 C 7.507812 6.601562 6.9375 6.84375 6.058594 7.761719 C 5.183594 8.675781 4.753906 9.101562 5.285156 10 C 5.816406 10.894531 6.46875 11.953125 6.183594 12.402344 C 5.898438 12.847656 5.367188 13.050781 4.265625 12.929688 C 3.164062 12.808594 2.570312 12.460938 2 13.640625 C 1.429688 14.824219 1.835938 15.839844 1.226562 17.058594 C 0.613281 18.28125 -0.0390625 18.484375 -0.0390625 18.851562 " fill-opacity="1" fill-rule="evenodd"/></g><path fill="#5e5550" d="M 37.980469 19.953125 L 184.277344 19.953125 L 184.277344 17.554688 L 37.980469 17.554688 L 37.980469 19.953125 " fill-opacity="1" fill-rule="evenodd"/></svg>